<mxfile host="app.diagrams.net" modified="2022-11-08T13:48:52.703Z" agent="5.0 (Windows NT 10.0; Win64; x64) AppleWebKit/537.36 (KHTML, like Gecko) Chrome/107.0.0.0 Safari/537.36" etag="PIbZGirm0c_w8dKZwa-S" version="20.5.3" type="github">
  <diagram id="OLsRw1nEhUELtPKsElDI" name="Trang-1">
    <mxGraphModel dx="1278" dy="585" grid="1" gridSize="10" guides="1" tooltips="1" connect="1" arrows="1" fold="1" page="1" pageScale="1" pageWidth="1700" pageHeight="1100" math="0" shadow="0">
      <root>
        <mxCell id="0" />
        <mxCell id="1" parent="0" />
        <mxCell id="8IoCP9E49wIlam9zu-yW-3" value="" style="edgeStyle=orthogonalEdgeStyle;rounded=0;orthogonalLoop=1;jettySize=auto;html=1;" edge="1" parent="1" source="8IoCP9E49wIlam9zu-yW-1" target="8IoCP9E49wIlam9zu-yW-2">
          <mxGeometry relative="1" as="geometry" />
        </mxCell>
        <mxCell id="8IoCP9E49wIlam9zu-yW-1" value="begin" style="ellipse;whiteSpace=wrap;html=1;" vertex="1" parent="1">
          <mxGeometry x="500" y="20" width="110" height="40" as="geometry" />
        </mxCell>
        <mxCell id="8IoCP9E49wIlam9zu-yW-5" value="" style="edgeStyle=orthogonalEdgeStyle;rounded=0;orthogonalLoop=1;jettySize=auto;html=1;" edge="1" parent="1" source="8IoCP9E49wIlam9zu-yW-2" target="8IoCP9E49wIlam9zu-yW-4">
          <mxGeometry relative="1" as="geometry" />
        </mxCell>
        <mxCell id="8IoCP9E49wIlam9zu-yW-2" value="input : Year" style="shape=parallelogram;perimeter=parallelogramPerimeter;whiteSpace=wrap;html=1;fixedSize=1;" vertex="1" parent="1">
          <mxGeometry x="502.5" y="90" width="105" height="40" as="geometry" />
        </mxCell>
        <mxCell id="8IoCP9E49wIlam9zu-yW-7" value="" style="edgeStyle=orthogonalEdgeStyle;rounded=0;orthogonalLoop=1;jettySize=auto;html=1;" edge="1" parent="1" source="8IoCP9E49wIlam9zu-yW-4" target="8IoCP9E49wIlam9zu-yW-6">
          <mxGeometry relative="1" as="geometry" />
        </mxCell>
        <mxCell id="8IoCP9E49wIlam9zu-yW-18" style="edgeStyle=orthogonalEdgeStyle;rounded=0;orthogonalLoop=1;jettySize=auto;html=1;" edge="1" parent="1" source="8IoCP9E49wIlam9zu-yW-4" target="8IoCP9E49wIlam9zu-yW-15">
          <mxGeometry relative="1" as="geometry">
            <mxPoint x="960" y="610" as="targetPoint" />
            <Array as="points">
              <mxPoint x="1060" y="215" />
              <mxPoint x="1060" y="615" />
            </Array>
          </mxGeometry>
        </mxCell>
        <mxCell id="8IoCP9E49wIlam9zu-yW-4" value="if :&amp;nbsp; year %4&amp;nbsp; == 0" style="rhombus;whiteSpace=wrap;html=1;" vertex="1" parent="1">
          <mxGeometry x="487.5" y="170" width="135" height="90" as="geometry" />
        </mxCell>
        <mxCell id="8IoCP9E49wIlam9zu-yW-9" value="" style="edgeStyle=orthogonalEdgeStyle;rounded=0;orthogonalLoop=1;jettySize=auto;html=1;" edge="1" parent="1" source="8IoCP9E49wIlam9zu-yW-6" target="8IoCP9E49wIlam9zu-yW-8">
          <mxGeometry relative="1" as="geometry" />
        </mxCell>
        <mxCell id="8IoCP9E49wIlam9zu-yW-26" style="edgeStyle=orthogonalEdgeStyle;rounded=0;orthogonalLoop=1;jettySize=auto;html=1;entryX=0.75;entryY=0;entryDx=0;entryDy=0;" edge="1" parent="1" source="8IoCP9E49wIlam9zu-yW-6" target="8IoCP9E49wIlam9zu-yW-15">
          <mxGeometry relative="1" as="geometry">
            <mxPoint x="850" y="580" as="targetPoint" />
            <Array as="points">
              <mxPoint x="933" y="355" />
            </Array>
          </mxGeometry>
        </mxCell>
        <mxCell id="8IoCP9E49wIlam9zu-yW-6" value="if :&amp;nbsp; year %100 == 0" style="rhombus;whiteSpace=wrap;html=1;" vertex="1" parent="1">
          <mxGeometry x="487.5" y="310" width="135" height="90" as="geometry" />
        </mxCell>
        <mxCell id="8IoCP9E49wIlam9zu-yW-12" value="" style="edgeStyle=orthogonalEdgeStyle;rounded=0;orthogonalLoop=1;jettySize=auto;html=1;" edge="1" parent="1" source="8IoCP9E49wIlam9zu-yW-8" target="8IoCP9E49wIlam9zu-yW-11">
          <mxGeometry relative="1" as="geometry" />
        </mxCell>
        <mxCell id="8IoCP9E49wIlam9zu-yW-22" style="edgeStyle=orthogonalEdgeStyle;rounded=0;orthogonalLoop=1;jettySize=auto;html=1;entryX=0.413;entryY=0.017;entryDx=0;entryDy=0;entryPerimeter=0;" edge="1" parent="1" source="8IoCP9E49wIlam9zu-yW-8" target="8IoCP9E49wIlam9zu-yW-15">
          <mxGeometry relative="1" as="geometry" />
        </mxCell>
        <mxCell id="8IoCP9E49wIlam9zu-yW-8" value="if :&amp;nbsp; year %400&amp;nbsp; == 0" style="rhombus;whiteSpace=wrap;html=1;" vertex="1" parent="1">
          <mxGeometry x="487.5" y="440" width="135" height="90" as="geometry" />
        </mxCell>
        <mxCell id="8IoCP9E49wIlam9zu-yW-14" value="" style="edgeStyle=orthogonalEdgeStyle;rounded=0;orthogonalLoop=1;jettySize=auto;html=1;" edge="1" parent="1" source="8IoCP9E49wIlam9zu-yW-11" target="8IoCP9E49wIlam9zu-yW-13">
          <mxGeometry relative="1" as="geometry" />
        </mxCell>
        <mxCell id="8IoCP9E49wIlam9zu-yW-17" style="edgeStyle=orthogonalEdgeStyle;rounded=0;orthogonalLoop=1;jettySize=auto;html=1;" edge="1" parent="1" source="8IoCP9E49wIlam9zu-yW-11" target="8IoCP9E49wIlam9zu-yW-15">
          <mxGeometry relative="1" as="geometry" />
        </mxCell>
        <mxCell id="8IoCP9E49wIlam9zu-yW-11" value="output : là năm&lt;br&gt;&amp;nbsp;nhuận" style="shape=parallelogram;perimeter=parallelogramPerimeter;whiteSpace=wrap;html=1;fixedSize=1;" vertex="1" parent="1">
          <mxGeometry x="495" y="585" width="120" height="60" as="geometry" />
        </mxCell>
        <mxCell id="8IoCP9E49wIlam9zu-yW-13" value="End" style="ellipse;whiteSpace=wrap;html=1;" vertex="1" parent="1">
          <mxGeometry x="495" y="690" width="120" height="60" as="geometry" />
        </mxCell>
        <mxCell id="8IoCP9E49wIlam9zu-yW-23" style="edgeStyle=orthogonalEdgeStyle;rounded=0;orthogonalLoop=1;jettySize=auto;html=1;entryX=1;entryY=0.5;entryDx=0;entryDy=0;" edge="1" parent="1" source="8IoCP9E49wIlam9zu-yW-15" target="8IoCP9E49wIlam9zu-yW-13">
          <mxGeometry relative="1" as="geometry">
            <Array as="points">
              <mxPoint x="840" y="720" />
            </Array>
          </mxGeometry>
        </mxCell>
        <mxCell id="8IoCP9E49wIlam9zu-yW-15" value="output : là năm ko nhuận" style="shape=parallelogram;perimeter=parallelogramPerimeter;whiteSpace=wrap;html=1;fixedSize=1;" vertex="1" parent="1">
          <mxGeometry x="790" y="580" width="190" height="70" as="geometry" />
        </mxCell>
        <mxCell id="8IoCP9E49wIlam9zu-yW-27" value="TRUE" style="text;html=1;align=center;verticalAlign=middle;resizable=0;points=[];autosize=1;strokeColor=none;fillColor=none;" vertex="1" parent="1">
          <mxGeometry x="495" y="270" width="60" height="30" as="geometry" />
        </mxCell>
        <mxCell id="8IoCP9E49wIlam9zu-yW-28" value="FALSE" style="text;html=1;align=center;verticalAlign=middle;resizable=0;points=[];autosize=1;strokeColor=none;fillColor=none;" vertex="1" parent="1">
          <mxGeometry x="750" y="320" width="60" height="30" as="geometry" />
        </mxCell>
        <mxCell id="8IoCP9E49wIlam9zu-yW-29" value="TRUE" style="text;html=1;align=center;verticalAlign=middle;resizable=0;points=[];autosize=1;strokeColor=none;fillColor=none;" vertex="1" parent="1">
          <mxGeometry x="495" y="535" width="60" height="30" as="geometry" />
        </mxCell>
        <mxCell id="8IoCP9E49wIlam9zu-yW-30" value="TRUE" style="text;html=1;align=center;verticalAlign=middle;resizable=0;points=[];autosize=1;strokeColor=none;fillColor=none;" vertex="1" parent="1">
          <mxGeometry x="480" y="410" width="60" height="30" as="geometry" />
        </mxCell>
        <mxCell id="8IoCP9E49wIlam9zu-yW-32" value="FALSE" style="text;html=1;align=center;verticalAlign=middle;resizable=0;points=[];autosize=1;strokeColor=none;fillColor=none;" vertex="1" parent="1">
          <mxGeometry x="750" y="180" width="60" height="30" as="geometry" />
        </mxCell>
        <mxCell id="8IoCP9E49wIlam9zu-yW-33" value="FALSE" style="text;html=1;align=center;verticalAlign=middle;resizable=0;points=[];autosize=1;strokeColor=none;fillColor=none;" vertex="1" parent="1">
          <mxGeometry x="740" y="450" width="60" height="30" as="geometry" />
        </mxCell>
      </root>
    </mxGraphModel>
  </diagram>
</mxfile>
